<svg width="720" height="720" viewBox="0 0 720 720" fill="none" xmlns="http://www.w3.org/2000/svg">
<g clip-path="url(#clip0_11_24)">
<path d="M442.56 139.2H600.78C667.26 139.2 720 194.25 720 260.73V474C720.112 489.689 717.104 505.243 711.153 519.76C705.201 534.276 696.425 547.465 685.332 558.561C674.239 569.656 661.053 578.436 646.538 584.391C632.023 590.347 616.469 593.358 600.78 593.25H442.56L481.53 538.2L596.19 501.54C616.83 494.64 630.57 474 630.57 453.39V279.09C630.57 258.48 616.83 237.84 596.19 230.94L481.5 194.25L442.5 139.2H442.56ZM89.4 453.33C89.4 473.97 103.2 494.61 123.81 501.51L238.47 535.89L277.47 590.94H119.22C103.531 591.048 87.9774 588.037 73.4624 582.082C58.9473 576.126 45.7605 567.346 34.6679 556.251C23.5754 545.156 14.7985 531.966 8.84702 517.45C2.89558 502.933 -0.111675 487.379 -6.3757e-06 471.69V260.7C-6.3757e-06 194.22 52.74 139.2 119.25 139.2H277.44L238.5 194.22L123.81 230.91C103.17 237.81 89.43 258.45 89.43 279.09L89.4 453.33Z" fill="white"/>
<path d="M481.53 336.39H240.75V391.44H481.53V336.39Z" fill="white"/>
</g>
<defs>
<clipPath id="clip0_11_24">
<rect width="720" height="720" fill="white"/>
</clipPath>
</defs>
</svg>
