<svg width="720" height="720" viewBox="0 0 720 720" fill="none" xmlns="http://www.w3.org/2000/svg">
<g clip-path="url(#clip0_10_26)">
<path d="M712.438 134.453C704.818 130.733 701.518 137.843 697.078 141.473C695.548 142.643 694.258 144.173 692.968 145.553C681.808 157.463 668.788 165.263 651.778 164.333C626.908 162.953 605.668 170.753 586.888 189.773C582.898 166.313 569.638 152.333 549.478 143.333C538.918 138.653 528.238 134.003 520.828 123.833C515.668 116.603 514.258 108.533 511.678 100.613C510.028 95.8127 508.378 90.9227 502.888 90.1127C496.888 89.1827 494.548 94.1927 492.208 98.3927C482.818 115.553 479.188 134.453 479.548 153.593C480.358 196.673 498.538 230.993 534.688 255.383C538.798 258.173 539.848 260.993 538.558 265.073C536.098 273.473 533.159 281.633 530.579 290.063C528.929 295.433 526.468 296.573 520.708 294.263C501.246 285.898 483.567 273.882 468.628 258.863C442.918 234.023 419.698 206.603 390.718 185.123C384.004 180.161 377.109 175.448 370.048 170.993C340.498 142.283 373.948 118.703 381.688 115.913C389.788 112.973 384.478 102.953 358.318 103.073C332.158 103.193 308.218 111.923 277.708 123.593C273.175 125.33 268.51 126.704 263.758 127.703C235.247 122.331 206.088 121.299 177.268 124.643C120.718 130.943 75.5685 157.703 42.3585 203.333C2.45849 258.173 -6.93151 320.513 4.55849 385.493C16.6485 454.013 51.6285 510.743 105.358 555.083C161.098 601.073 225.268 623.603 298.498 619.283C342.958 616.733 392.488 610.763 448.318 563.483C462.418 570.503 477.179 573.293 501.719 575.393C520.619 577.163 538.799 574.493 552.869 571.553C574.919 566.873 573.388 546.443 565.438 542.723C500.788 512.603 514.978 524.873 502.048 514.943C534.928 476.063 584.428 435.683 603.808 304.853C605.308 294.443 604.018 287.903 603.808 279.503C603.688 274.403 604.858 272.393 610.708 271.823C626.94 270.139 642.685 265.298 657.058 257.573C698.938 234.683 715.858 197.123 719.848 152.063C720.448 145.163 719.728 138.083 712.438 134.453ZM347.428 539.993C284.758 490.733 254.368 474.503 241.828 475.193C230.068 475.913 232.198 489.323 234.778 498.083C237.478 506.723 240.988 512.663 245.908 520.253C249.328 525.263 251.668 532.733 242.518 538.343C222.328 550.823 187.258 534.143 185.608 533.333C144.778 509.273 110.608 477.533 86.5785 434.123C63.3585 392.333 49.8585 347.513 47.6385 299.663C47.0385 288.083 50.4285 284.003 61.9485 281.903C77.0718 279.009 92.5673 278.613 107.818 280.733C171.778 290.093 226.198 318.683 271.858 363.953C297.898 389.753 317.608 420.563 337.918 450.683C359.518 482.663 382.738 513.143 412.318 538.103C422.758 546.863 431.068 553.523 439.048 558.413C414.988 561.113 374.848 561.713 347.428 539.993ZM377.428 346.793C377.423 345.302 377.781 343.833 378.471 342.512C379.16 341.191 380.161 340.058 381.387 339.21C382.613 338.362 384.026 337.826 385.506 337.647C386.985 337.468 388.486 337.652 389.878 338.183C391.653 338.819 393.185 339.994 394.261 341.543C395.336 343.091 395.902 344.937 395.878 346.823C395.883 348.041 395.644 349.248 395.177 350.373C394.71 351.498 394.024 352.519 393.158 353.376C392.293 354.233 391.265 354.91 390.135 355.366C389.006 355.822 387.797 356.049 386.578 356.033C385.369 356.037 384.172 355.8 383.056 355.335C381.939 354.871 380.927 354.189 380.078 353.328C379.228 352.468 378.559 351.447 378.11 350.324C377.66 349.202 377.409 348.001 377.428 346.793ZM470.728 394.673C464.728 397.103 458.758 399.203 453.028 399.473C444.408 399.773 435.949 397.081 429.088 391.853C420.868 384.953 414.988 381.113 412.528 369.113C411.68 363.248 411.843 357.282 413.008 351.473C415.108 341.663 412.768 335.363 405.838 329.663C400.228 324.983 393.058 323.693 385.198 323.693C382.507 323.536 379.893 322.734 377.578 321.353C374.278 319.733 371.578 315.653 374.158 310.613C374.998 308.993 378.958 305.033 379.918 304.313C390.598 298.253 402.928 300.233 414.298 304.793C424.858 309.113 432.838 317.033 444.328 328.253C456.058 341.783 458.188 345.533 464.878 355.673C470.158 363.623 474.958 371.783 478.228 381.113C480.238 386.963 477.658 391.733 470.728 394.673Z" fill="white"/>
</g>
<defs>
<clipPath id="clip0_10_26">
<rect width="720" height="720" fill="white"/>
</clipPath>
</defs>
</svg>
