<svg width="720" height="720" viewBox="0 0 720 720" fill="none" xmlns="http://www.w3.org/2000/svg">
<path d="M690 367.354C690 340.204 687.75 320.404 682.92 299.854H366.72V422.344H552.3C548.58 452.764 528.39 498.604 483.48 529.413L482.85 533.494L582.81 609.394L589.71 610.053C653.37 552.513 690 467.794 690 367.354Z" fill="white"/>
<path d="M366.751 690.001C457.651 690.001 533.971 660.661 589.741 610.051L483.481 529.411C455.041 548.851 416.881 562.411 366.751 562.411C324.494 562.415 283.297 549.19 248.938 524.592C214.58 499.993 188.784 465.255 175.171 425.251L171.211 425.581L67.2606 504.421L65.9106 508.141C121.291 615.931 235.051 690.001 366.751 690.001Z" fill="white"/>
<path d="M175.2 425.252C167.821 404.284 163.999 382.23 163.89 360.002C163.89 337.262 168.03 315.272 174.72 294.752L174.54 290.342L69.3 210.242L65.85 211.862C42.3238 257.701 30.0357 308.478 30 360.002C30 413.162 43.08 463.412 65.91 508.142L175.2 425.252Z" fill="white"/>
<path d="M366.751 157.59C429.991 157.59 472.621 184.35 496.951 206.73L591.961 115.8C533.611 62.64 457.651 30 366.751 30C235.021 30 121.291 104.07 65.9106 211.86L174.811 294.75C188.541 254.75 214.416 220.034 248.825 195.445C283.233 170.857 324.459 157.623 366.751 157.59Z" fill="white"/>
</svg>
