<svg width="720" height="720" viewBox="0 0 720 720" fill="none" xmlns="http://www.w3.org/2000/svg">
<path d="M102.84 102H205.71V204.84H102.84V102ZM514.26 102H617.16V204.84H514.26V102Z" fill="white"/>
<path d="M102.84 204.84H308.55V307.71H102.87L102.84 204.84ZM411.42 204.84H617.13V307.71H411.42V204.84Z" fill="white"/>
<path d="M102.84 307.74H617.16V410.58H102.84V307.74Z" fill="white"/>
<path d="M102.84 410.58H205.71V513.42H102.84V410.58ZM308.58 410.58H411.45V513.42H308.58V410.58ZM514.26 410.58H617.16V513.42H514.26V410.58Z" fill="white"/>
<path d="M0 513.42H308.58V616.29H0V513.42ZM411.42 513.42H720V616.29H411.42V513.42Z" fill="white"/>
</svg>
