<svg width="720" height="720" viewBox="0 0 720 720" fill="none" xmlns="http://www.w3.org/2000/svg">
<g clip-path="url(#clip0_10_28)">
<path fill-rule="evenodd" clip-rule="evenodd" d="M31.5622 507.482L317.732 584.042C317.347 604.389 317.948 624.743 319.532 645.032L498.212 692.822C445.216 714.696 387.762 723.592 330.632 718.772L325.232 718.292L323.912 718.172L321.392 717.902L318.572 717.602C317.001 717.412 315.431 717.212 313.862 717.002L310.652 716.582L307.352 716.102C304.145 715.635 300.945 715.125 297.752 714.572L296.492 714.332L294.242 713.942L291.032 713.342L288.932 712.892L286.142 712.322L283.892 711.842L281.042 711.242L278.132 710.552L275.312 709.892L273.272 709.382L270.632 708.722L267.932 708.002L265.082 707.252L262.622 706.562L259.352 705.662L257.492 705.062L254.972 704.312L252.182 703.472L249.032 702.452L247.292 701.882L244.892 701.102L242.192 700.172L240.212 699.452C239.772 699.303 239.332 699.153 238.892 699.002L236.852 698.252L233.822 697.142L232.112 696.482L229.712 695.582L227.102 694.532L224.462 693.482L222.092 692.522L219.242 691.322L217.352 690.482L215.462 689.672C215.052 689.493 214.642 689.313 214.232 689.132L212.252 688.232L209.162 686.822L207.602 686.102L204.722 684.722L202.862 683.822L200.342 682.622L197.762 681.302L194.972 679.892L193.412 679.082L190.322 677.432L188.612 676.532L186.872 675.572C186.411 675.313 185.951 675.053 185.492 674.792L182.672 673.202L180.872 672.182L179.342 671.282L177.182 670.052L174.722 668.552L171.932 666.872L170.372 665.912L167.852 664.322L166.022 663.152L163.652 661.652L161.552 660.242L159.962 659.192C159.421 658.834 158.881 658.474 158.342 658.112L157.022 657.212L155.702 656.312C155.301 656.033 154.901 655.753 154.502 655.472L152.792 654.272L150.512 652.652L148.442 651.152L146.222 649.532L144.542 648.272L142.262 646.562L139.982 644.792L137.402 642.782L136.052 641.732L134.132 640.172L131.912 638.372L129.242 636.182L127.862 635.012L126.482 633.842C126.051 633.473 125.621 633.103 125.192 632.732L123.842 631.532L122.012 629.942L119.912 628.082L117.872 626.282L116.012 624.542L114.002 622.682L112.412 621.182L109.772 618.662C108.777 617.697 107.787 616.727 106.802 615.752L105.932 614.912L104.702 613.652L102.632 611.552L101.132 610.022L99.6322 608.432C97.9184 606.674 96.2381 604.883 94.5922 603.062L92.1922 600.422L90.3322 598.322L88.2022 595.922L86.9422 594.452L85.3522 592.592L83.6122 590.552L82.2322 588.872C81.9613 588.542 81.6913 588.212 81.4222 587.882L80.0722 586.232L78.0922 583.772L76.8622 582.212L75.3622 580.292L74.7622 579.542C57.5968 557.292 43.0979 533.107 31.5622 507.482ZM0.962231 333.662L341.552 424.772C335.85 444.632 331.154 464.768 327.482 485.102L651.992 571.922C635.871 593.995 617.302 614.174 596.642 632.072L19.7122 477.692L19.2322 476.312L18.1822 473.192C17.6719 471.665 17.1719 470.135 16.6822 468.602L16.4722 467.912C14.1631 460.57 12.092 453.157 10.2622 445.682L9.36223 441.902L8.82223 439.502L8.19223 436.592L7.65223 434.162L7.11223 431.462L6.60223 428.942L6.06223 426.122C5.28223 421.892 4.56223 417.632 3.93223 413.342L3.42223 409.802L3.09223 407.312L2.70223 404.252C2.50137 402.643 2.31136 401.033 2.13223 399.422L1.98223 398.012C-0.259184 376.634 -0.600521 355.1 0.962231 333.662ZM48.7522 179.162L407.192 275.042C396.152 293.192 386.042 311.972 376.892 331.292L715.742 421.952C711.482 446.552 704.702 470.312 695.702 492.902L349.202 400.202L3.72223 307.802L4.17223 304.802L4.41223 303.332L4.71223 301.322L5.16223 298.712L5.70223 295.772C6.48223 291.332 7.38223 286.922 8.34223 282.512L9.18223 278.792L9.78223 276.242L10.5022 273.332C11.1622 270.632 11.8522 267.932 12.6022 265.292L13.4422 262.232L14.1322 259.742L15.0322 256.742L15.7822 254.282L16.6822 251.402L17.4622 248.942L18.3922 246.092C26.1609 222.788 36.3147 200.349 48.6922 179.132L48.7522 179.162ZM182.012 47.1616L520.562 137.702C502.697 153.917 485.788 171.156 469.922 189.332L704.612 252.122C712.622 277.682 717.872 304.442 720.002 332.072L63.1822 156.392L64.5322 154.442L65.3422 153.242L66.5422 151.592L67.9222 149.642L69.5722 147.362L71.1922 145.202L73.1122 142.622L74.6122 140.672L76.3222 138.482L77.9722 136.382L79.7722 134.162L81.4222 132.092L83.3722 129.782L84.9922 127.802L86.9722 125.492L88.5622 123.692L90.7222 121.232L92.3122 119.432L94.3222 117.212L95.9422 115.472L98.1322 113.132L99.8722 111.332L101.762 109.322L106.802 104.222L109.802 101.282L111.572 99.6016L113.852 97.4716C134.528 78.0954 157.404 61.2101 182.012 47.1616ZM360.512 0.00155762H363.422L365.882 0.0315576L367.952 0.0615576L369.572 0.121558L371.612 0.181558L372.992 0.211558L375.272 0.301558L376.682 0.361558L378.482 0.451558L380.102 0.511558L382.712 0.661558L385.862 0.871558L390.182 1.20156L392.822 1.41156L394.142 1.53156L396.452 1.77156L398.912 2.01156L400.322 2.16156L403.382 2.52156L404.882 2.70156L408.122 3.12156L410.552 3.42156L411.812 3.60156L413.762 3.90156L419.972 4.86156L422.072 5.22156L424.022 5.55156L428.222 6.33156L430.982 6.87156L434.282 7.53156L435.662 7.83156L437.912 8.31156L439.142 8.61156L441.002 9.00156L442.262 9.30156L444.212 9.75156L445.682 10.1116L447.812 10.6216L450.692 11.3416L454.052 12.2416L457.442 13.1416L460.832 14.1016L462.332 14.5516L464.432 15.1516L466.772 15.8716L468.962 16.5616L470.462 17.0416L471.962 17.5216L474.242 18.2716L477.212 19.2616L480.272 20.3416L481.712 20.8516L483.632 21.5416L486.422 22.5616L489.722 23.7916L493.202 25.1416L496.202 26.3416L497.612 26.9416L499.412 27.6616L500.642 28.2016L502.532 28.9816L503.732 29.5216L505.442 30.2716L508.742 31.7116L511.742 33.0916L513.962 34.1416L516.212 35.2216L518.012 36.0616L520.772 37.4416L523.502 38.7916L526.562 40.3516L528.152 41.1916L529.622 41.9716L531.002 42.6916L532.802 43.6816L534.032 44.3416L535.592 45.2116L538.232 46.7116L541.412 48.5116L544.022 50.0416L545.732 51.0616L547.322 52.0216L550.202 53.7916L552.842 55.4416L555.782 57.3016L556.862 58.0216L558.782 59.2516L561.302 60.9316L562.502 61.7416L564.362 63.0016L566.222 64.2916L566.912 64.8016C568.532 65.9116 570.152 67.0516 571.742 68.2216L574.232 70.0216L576.182 71.4616L577.862 72.7516L580.442 74.7016L582.902 76.6216L584.102 77.5216L585.602 78.7516L588.182 80.8216L590.552 82.7716L593.102 84.9016C614.462 102.902 633.692 123.392 650.372 145.832L216.662 29.8216L218.522 29.0116L220.472 28.1716L222.902 27.1516L225.482 26.1016C228.872 24.7516 232.292 23.4016 235.712 22.1716L238.592 21.1216L241.382 20.1316L243.902 19.2316L246.782 18.3016C249.392 17.4016 252.062 16.5616 254.702 15.7516L257.432 14.9416L260.012 14.1916L263.072 13.2916L265.622 12.6016L268.622 11.8216L271.202 11.1016L273.902 10.4116L276.632 9.75156L279.482 9.09156L282.182 8.49156L285.122 7.86156L287.852 7.26156L290.702 6.72156L293.462 6.18156L296.462 5.64156L299.192 5.16156L302.132 4.65156L304.892 4.23156L307.802 3.78156L310.562 3.39156L313.622 3.00156L316.352 2.64156L319.502 2.28156L322.202 1.98156L325.352 1.68156C328.142 1.38156 330.932 1.14156 333.752 0.961558L336.932 0.721558L339.632 0.571558L342.932 0.391558L345.722 0.271558L348.722 0.151558L351.632 0.0915576L354.602 0.0315576L360.512 -0.0284424V0.00155762Z" fill="white"/>
</g>
<defs>
<clipPath id="clip0_10_28">
<rect width="720" height="720" fill="white"/>
</clipPath>
</defs>
</svg>
