<svg width="720" height="720" viewBox="0 0 720 720" fill="none" xmlns="http://www.w3.org/2000/svg">
<path fill-rule="evenodd" clip-rule="evenodd" d="M276.15 259.74V191.94C276.15 186.24 278.31 181.95 283.29 179.1L419.58 100.62C438.15 89.91 460.26 84.93 483.09 84.93C568.71 84.93 622.95 151.29 622.95 221.91C622.95 226.92 622.95 232.62 622.23 238.32L480.93 155.55C477.093 153.107 472.639 151.81 468.09 151.81C463.541 151.81 459.087 153.107 455.25 155.55L276.15 259.74ZM594.42 523.74V361.8C594.42 351.81 590.13 344.7 581.55 339.69L402.45 235.5L460.95 201.96C463.07 200.565 465.552 199.822 468.09 199.822C470.628 199.822 473.11 200.565 475.23 201.96L611.52 280.47C650.79 303.27 677.19 351.81 677.19 398.91C677.19 453.15 645.09 503.1 594.39 523.8L594.42 523.74ZM234.06 381.09L175.56 346.83C170.55 343.98 168.39 339.69 168.39 333.99V176.97C168.39 100.62 226.89 42.81 306.12 42.81C336.12 42.81 363.93 52.8 387.48 70.65L246.9 152.01C238.35 156.99 234.06 164.13 234.06 174.12V381.06V381.09ZM360 453.84L276.15 406.74V306.84L360 259.74L443.85 306.84V406.74L360 453.84ZM413.88 670.74C383.88 670.74 356.07 660.78 332.52 642.93L473.1 561.57C481.65 556.59 485.94 549.45 485.94 539.46V332.52L545.16 366.78C550.17 369.63 552.3 373.92 552.3 379.62V536.61C552.3 612.96 493.08 670.74 413.88 670.74ZM244.77 511.65L108.45 433.14C69.21 410.31 42.81 361.8 42.81 314.7C42.7175 287.938 50.6133 261.757 65.4868 239.508C80.3603 217.259 101.535 199.955 126.3 189.81V352.5C126.3 362.49 130.59 369.63 139.14 374.64L317.55 478.11L259.05 511.65C256.931 513.049 254.449 513.794 251.91 513.794C249.371 513.794 246.889 513.049 244.77 511.65ZM236.91 628.65C156.27 628.65 97.05 568.02 97.05 493.08C97.05 487.38 97.77 481.68 98.46 475.98L239.04 557.28C247.62 562.29 256.17 562.29 264.72 557.28L443.82 453.84V521.64C443.82 527.34 441.72 531.63 436.71 534.48L300.42 612.96C281.85 623.67 259.74 628.65 236.91 628.65ZM413.88 713.55C454.997 713.553 494.853 699.355 526.706 673.356C558.56 647.357 580.456 611.154 588.69 570.87C668.61 550.17 720 475.2 720 398.88C720 348.93 698.61 300.42 660.06 265.44C663.63 250.44 665.76 235.47 665.76 220.5C665.76 118.47 582.99 42.09 487.38 42.09C468.12 42.09 449.58 44.94 430.98 51.39C397.68 18.6123 352.875 0.167058 306.15 1.92725e-07C265.029 -0.00191034 225.17 14.201 193.316 40.2058C161.462 66.2106 139.568 102.421 131.34 142.71C51.39 163.41 0 238.35 0 314.7C0 364.68 21.39 413.19 59.94 448.14C56.37 463.14 54.24 478.14 54.24 493.11C54.24 595.14 137.01 671.49 232.62 671.49C251.88 671.49 270.42 668.64 289.02 662.22C322.324 695.01 367.143 713.457 413.88 713.61V713.55Z" fill="white"/>
</svg>
